<svg xmlns="http://www.w3.org/2000/svg" aria-hidden="true" style="width:0;height:0;position:absolute;overflow:hidden"><defs><symbol id="icon-mail" viewBox="0 0 32 32"><path d="M22.971 27.771H9.028c-2.4 0-3.657 0-4.686-.571-1.029-.457-1.714-1.257-2.286-2.286-.571-1.143-.571-2.286-.571-4.686V8.915c.114-.8.229-1.371.457-1.943.457-1.029 1.257-1.714 2.286-2.286 1.143-.571 2.286-.571 4.686-.571h13.829c2.4 0 3.657 0 4.686.571 1.029.457 1.714 1.257 2.286 2.286.343.571.457 1.143.457 1.943.114.229.114.457 0 .571v10.742c0 2.4 0 3.657-.571 4.686-.457 1.029-1.257 1.714-2.286 2.286-.8.571-1.943.571-4.343.571zM4.457 24.457c.229.343.571.571.914.686.571.343 1.714.343 3.657.343h13.829c1.943 0 3.086 0 3.657-.343.343-.229.686-.457.914-.686l-7.771-7.086-.571.457c-.914.686-1.486 1.029-2.171 1.257a4.933 4.933 0 0 1-1.829 0c-.686-.114-1.257-.571-2.171-1.257l-.571-.457-7.886 7.086zM21.6 16.114l6.514 5.943V11.543L21.6 16.114zM3.771 11.543v10.514l6.514-5.943-6.514-4.571zm9.029 3.543 1.371.914c.686.457 1.143.8 1.371.914s.457.114.686 0c.229-.114.686-.343 1.371-.914l1.371-.914L27.884 8.8c0-.343-.114-.571-.229-.8a2.266 2.266 0 0 0-1.257-1.257c-.571-.343-1.714-.343-3.657-.343H9.027c-1.943 0-3.086 0-3.657.343S4.341 7.543 4.113 8c-.114.229-.114.457-.229.8l8.914 6.286z"/></symbol><symbol id="icon-lock" viewBox="0 0 32 32"><path d="M21.6 29.1H10.4c-2.4 0-3.6 0-4.7-.6-1-.5-1.8-1.3-2.2-2.2-.6-1.1-.6-2.3-.6-4.7v-.5c0-2.4 0-3.6.6-4.7.5-1 1.3-1.8 2.2-2.2.7-.4 1.4-.5 2.5-.5v-2.9C8.2 6.5 11.7 3 16 3s7.8 3.5 7.8 7.8v2.9c1.1 0 1.8.2 2.5.5 1 .5 1.8 1.3 2.2 2.2.6 1.1.6 2.3.6 4.7v.5c0 2.4 0 3.6-.6 4.7-.5 1-1.3 1.8-2.2 2.2-1.1.6-2.3.6-4.7.6zM10.4 15.8c-2 0-3.1 0-3.7.3-.5.3-1 .7-1.2 1.2-.3.6-.3 1.7-.3 3.7v.5c0 2 0 3.1.3 3.7.3.5.7 1 1.2 1.2.6.3 1.7.3 3.7.3h11.2c2 0 3.1 0 3.7-.3.5-.3 1-.7 1.2-1.2.3-.6.3-1.7.3-3.7V21c0-2 0-3.1-.3-3.7-.3-.5-.7-1-1.2-1.2-.6-.3-1.7-.3-3.7-.3H10.4zm.1-2.3h11v-2.9c0-3-2.5-5.5-5.5-5.5s-5.5 2.5-5.5 5.5v2.9z"/></symbol><symbol id="icon-close" viewBox="0 0 32 32"><path d="M24 25.714c-.457 0-.914-.114-1.257-.457L16 18.4l-6.743 6.743c-.686.686-1.714.686-2.4 0s-.686-1.714 0-2.4L13.6 16 6.743 9.257c-.686-.686-.686-1.714 0-2.4s1.714-.686 2.4 0l6.743 6.743 6.743-6.743c.686-.686 1.714-.686 2.4 0s.686 1.714 0 2.4L18.4 16l6.743 6.743c.686.686.686 1.714 0 2.4-.229.457-.686.571-1.143.571z"/></symbol><symbol id="icon-menu" viewBox="0 0 32 32"><path d="M22.7 14.5H4c-.6 0-1.1-.5-1.1-1.1s.5-1.1 1.1-1.1h18.7c.6 0 1.1.5 1.1 1.1s-.5 1.1-1.1 1.1zM28 9.1H4c-.6 0-1.1-.5-1.1-1.1S3.4 6.9 4 6.9h24c.6 0 1.1.5 1.1 1.1s-.5 1.1-1.1 1.1zm0 10.7H4c-.6 0-1.1-.5-1.1-1.1s.5-1.1 1.1-1.1h24c.6 0 1.1.5 1.1 1.1s-.5 1.1-1.1 1.1zm-5.3 5.3H4c-.6 0-1.1-.5-1.1-1.1s.5-1.1 1.1-1.1h18.7c.6 0 1.1.5 1.1 1.1s-.5 1.1-1.1 1.1z"/></symbol><symbol id="icon-trash" viewBox="0 0 32 32"><path d="M18 29.5h-4c-2.3 0-3.5 0-4.6-.5-1-.5-1.8-1.2-2.4-2.2-.6-1.1-.7-2.3-.9-4.6L5.3 9.5H4c-.8 0-1.5-.7-1.5-1.5S3.2 6.5 4 6.5h24c.8 0 1.5.7 1.5 1.5s-.7 1.5-1.5 1.5h-1.3l-.8 12.7c-.2 2.3-.2 3.5-.9 4.6-.5 1-1.4 1.7-2.4 2.2-1.1.5-2.3.5-4.6.5zm-9.8-20L9 22c.1 1.8.2 2.8.5 3.3.3.4.6.8 1.1 1 .5.3 1.5.3 3.4.3h4c1.8 0 2.8 0 3.4-.3.5-.2.8-.6 1.1-1 .3-.5.4-1.5.5-3.3l.8-12.5H8.2zm10.5 12.6c-.8 0-1.5-.7-1.5-1.5V14c0-.8.7-1.5 1.5-1.5s1.5.7 1.5 1.5v6.7c-.1.8-.7 1.4-1.5 1.4zm-5.4 0c-.8 0-1.5-.7-1.5-1.5V14c0-.8.7-1.5 1.5-1.5s1.5.7 1.5 1.5v6.7c0 .8-.7 1.4-1.5 1.4zM20 5.5h-8c-.8 0-1.5-.7-1.5-1.5s.7-1.5 1.5-1.5h8c.8 0 1.5.7 1.5 1.5s-.7 1.5-1.5 1.5z"/></symbol><symbol id="icon-user" viewBox="0 0 32 32"><path d="M5.333 29.333a10.662 10.662 0 0 1 18.208-7.543c2 2 3.124 4.714 3.124 7.543H5.332zm10.667-12c-4.42 0-8-3.58-8-8s3.58-8 8-8 8 3.58 8 8-3.58 8-8 8z"/></symbol><symbol id="icon-arrow-down" viewBox="0 0 28 32"><path d="M5.898 12h16.513l-7.423 8.391c-.221.25-.521.39-.834.39s-.613-.14-.834-.39L5.898 12z"/></symbol><symbol id="icon-arrow-right" viewBox="0 0 32 32"><path d="M18.7 25.6c-.4 0-.8-.2-1.1-.5-.6-.6-.6-1.6 0-2.3l5.3-5.3H5.3c-.9 0-1.6-.7-1.6-1.6s.7-1.6 1.6-1.6h17.5L17.5 9c-.6-.6-.6-1.6 0-2.3.6-.6 1.6-.6 2.3 0l8 8c.3.3.5.7.5 1.1s-.2.8-.5 1.1l-8 8c-.3.5-.7.7-1.1.7z"/></symbol><symbol id="icon-arrow-back" viewBox="0 0 32 32"><path d="M4.5 19.6 15.7 8.367c.133-.133.278-.228.433-.283s.322-.084.5-.084.345.028.5.084.3.149.433.283L28.799 19.6c.311.311.467.7.467 1.167s-.167.867-.5 1.2c-.333.333-.722.5-1.167.5s-.833-.167-1.167-.5l-9.8-9.8-9.8 9.8c-.311.311-.694.467-1.149.467s-.851-.167-1.184-.5-.5-.722-.5-1.167c0-.444.167-.833.5-1.167z"/></symbol><symbol id="icon-book" viewBox="0 0 34 32"><path d="M32.716 8.869a15.813 15.813 0 0 0-2.24-.953v18.801a15.321 15.321 0 0 0-5.333-.969c-2.895 0-5.76.844-8.381 2.469V9.306c-2.469-1.454-5.318-2.313-8.381-2.313-2.728 0-5.303.688-7.573 1.875-.503.25-.808.797-.808 1.375v18.88c0 .906.716 1.547 1.524 1.547.244 0 .488-.063.731-.188 1.844-.985 3.916-1.61 6.126-1.61 3.154 0 6.065 1.282 8.381 3.126 2.316-1.844 5.227-3.126 8.381-3.126 2.21 0 4.282.625 6.126 1.625.244.125.488.188.731.188.792 0 1.524-.641 1.524-1.547V10.243c0-.578-.305-1.125-.808-1.375zM13.714 26.717c-1.737-.641-3.52-.969-5.333-.969s-3.596.328-5.333.969V11.229a13.263 13.263 0 0 1 5.333-1.11c1.829 0 3.642.391 5.333 1.125v15.473zM27.429 1.524 19.81 9.338v14.847l7.619-7.033V1.523z"/></symbol><symbol id="icon-shoppingcart" viewBox="0 0 32 32"><path d="M25.333 9.333h-4V8a5.332 5.332 0 1 0-10.666 0v1.333h-4a1.335 1.335 0 0 0-1.334 1.334v14.667a4.003 4.003 0 0 0 4 4h13.333a4.003 4.003 0 0 0 4-4V10.667a1.335 1.335 0 0 0-1.334-1.334zM13.333 8a2.668 2.668 0 0 1 5.334 0v1.333h-5.333V8zM24 25.333a1.335 1.335 0 0 1-1.334 1.334H9.333a1.335 1.335 0 0 1-1.334-1.334V12h2.667v1.333a1.335 1.335 0 0 0 2.277.943c.25-.251.391-.589.391-.943V12h5.333v1.333a1.333 1.333 0 1 0 2.667 0V12h2.667v13.333z"/></symbol><symbol id="trident-icon" viewBox="0 0 20 32"><path d="M9.005 30.888a8.64 8.64 0 0 1-3.414-5.351H0V2.42c2.991 1.443 5.153 4.599 5.388 7.876l.846 6.493-.407-.045c-.893 0-1.676.812-1.676 1.608 0 .752.595 1.383 1.378 1.548l1.018.226c1.676-3.051 2.631-6.042 2.631-8.973 0-2.645-.36-5.291-.423-7.996 0-1.202.486-2.3 1.253-3.156.783.857 1.253 1.954 1.253 3.156 0 2.705-.423 5.351-.423 7.996 0 2.931.955 5.922 2.631 8.973l1.018-.226c.783-.165 1.378-.812 1.378-1.548 0-.812-.783-1.608-1.676-1.608l-.423.06.846-6.493c.423-3.277 2.396-6.448 5.388-7.876v23.117h-5.576c-.423 2.179-1.613 4.148-3.414 5.351-.423.286-.783.631-1.018 1.097-.219-.466-.579-.812-.987-1.112zM2.647 17.556c.235-.857.893-1.608 1.738-2.074l-.658-5.351a8.288 8.288 0 0 0-2.036-4.374v11.784h.955v.015zm2.819 6.373c0-.812.125-1.548.298-2.3l-.783-.18c-1.143-.346-2.036-1.203-2.334-2.3h-.955v4.78h3.774zm3.712 0c0-.977-.783-1.834-1.801-1.954-.172.631-.298 1.263-.298 1.954h2.099zm0 1.623H7.314c.298 1.263.955 2.42 1.864 3.397v-3.397zm2.631-5.005c-.72-1.262-1.378-2.585-1.801-3.968-.423 1.383-1.081 2.706-1.801 3.968.72.165 1.316.631 1.801 1.157.486-.526 1.081-.992 1.801-1.157zm1.143 3.382c0-.691-.125-1.323-.297-1.954-1.018.12-1.801.977-1.801 1.954h2.099zm-.235 1.623h-1.864v3.397c.908-.992 1.566-2.134 1.864-3.397zm5.623-1.623v-4.78h-.955c-.298 1.097-1.206 1.954-2.334 2.3l-.783.18c.172.752.298 1.488.298 2.3h3.774zm0-6.373V5.757c-1.081 1.202-1.864 2.706-2.036 4.374l-.658 5.351c.846.466 1.504 1.203 1.739 2.074h.955z"/></symbol><symbol id="next-icon" viewBox="0 0 32 32"><path d="M15.053 17.867a1.334 1.334 0 0 0 1.894 0l6.107-6.12a1.334 1.334 0 1 1 1.894 1.88l-6.12 6.12a4.001 4.001 0 0 1-5.654 0l-6.12-6.12a1.337 1.337 0 0 1 .434-2.172 1.331 1.331 0 0 1 1.46.292l6.107 6.12z"/></symbol></defs></svg>