<svg width="86" height="28" fill="none" xmlns="http://www.w3.org/2000/svg"><g clip-path="url('#clip0_0_1138')"><path d="m0 1.5 12.768 12.634L25 26.5v-25H0Z" fill="#F6F6F6"/><path d="m3.482 4.804 9.33 9.24 8.795 8.974H3.482V4.804Z" fill="#F6F6F6"/><path d="m21.666 23.077-9.33-9.241L3.54 4.862h18.125v18.215Z" fill="#4F2EE8"/><path d="m7.232 8.554 4.955 4.955 5.67 5.67H7.232V8.554Z" fill="#4F2EE8"/><path d="m7.232 8.554 4.955 4.955 5.67 5.67V8.554H7.232Z" fill="#F6F6F6"/></g><path d="M45.842 9.692c0-2.678-2.025-4.192-5.527-4.192H33v16.65h7.72c3.526 0 5.79-1.653 5.79-4.866 0-2.492-1.526-3.773-3.313-4.076v-.046c1.406-.466 2.645-1.42 2.645-3.47Zm-10.007 2.701v-4.54h4.551c1.692 0 2.62.814 2.62 2.281s-.761 2.26-2.787 2.26h-4.384Zm0 2.073h4.98c1.787 0 2.859.955 2.859 2.655 0 1.56-.739 2.678-3.169 2.678h-4.67v-5.333ZM53.784 22.5c-3.812 0-6.123-2.585-6.123-6.288 0-3.702 2.31-6.287 6.123-6.287 3.812 0 6.123 2.585 6.123 6.287 0 3.703-2.31 6.288-6.123 6.288Zm0-2.003c2.383 0 3.622-1.84 3.622-4.285 0-2.468-1.24-4.285-3.622-4.285-2.383 0-3.622 1.817-3.622 4.285 0 2.445 1.24 4.285 3.622 4.285ZM67.116 22.5c-3.812 0-6.123-2.585-6.123-6.288 0-3.702 2.311-6.287 6.123-6.287 3.812 0 6.124 2.585 6.124 6.287 0 3.703-2.312 6.288-6.124 6.288Zm0-2.003c2.383 0 3.622-1.84 3.622-4.285 0-2.468-1.24-4.285-3.622-4.285-2.382 0-3.621 1.817-3.621 4.285 0 2.445 1.239 4.285 3.621 4.285ZM74.969 5.5v16.65h2.501v-4.307l1.692-1.56 3.836 5.868H86l-5.123-7.476 4.623-4.424h-3.074l-4.956 4.774V5.5H74.97Z" fill="#F3F3F3"/><defs><clipPath id="clip0_0_1138"><path fill="#fff" transform="translate(0 1.5)" d="M0 0h25v25H0z"/></clipPath></defs></svg>