<svg version="1.0" xmlns="http://www.w3.org/2000/svg" width="1109.333" height="1109.333" viewBox="0 0 832 832"><path d="M22 15.9c0 .5-1.1.8-2.5.5-1.4-.2-2.5-.2-2.5.1 0 .4 35.6 35.9 88 87.5l22.4 22.2.1 289.1v289.2h289.2l289.1.1 27.9 28.2c60 60.8 80.1 81 81.2 81.6.8.5 1.1-105.2 1.1-398.7V16.3l-5.5.1c-3 .1-5.5-.3-5.5-.7 0-.6-.5-.6-1.2 0-.7.5-3.1.8-5.3.6-5-.4-4.6-.4-13.3-.1-3.9.2-7.2-.1-7.2-.6s-.6-.4-1.2.1c-.7.5-5.6.7-10.8.6-5.2-.2-9.9-.3-10.5-.3-.5 0-2.9.1-5.2.3-2.4.2-4.3-.1-4.3-.6 0-.4-.5-.5-1.2-.1-1.6 1-14.8 1.1-14.8.1 0-.5-.5-.5-1.2-.1-1.7 1.1-19.8 1.1-19.8 0 0-.5-.6-.4-1.2.1-.7.5-3.1.8-5.3.6-5-.4-4.6-.4-13.3-.1-3.9.2-7.2-.1-7.2-.6s-.6-.4-1.2.1c-.7.5-5.6.7-10.8.6-5.2-.2-9.9-.3-10.5-.3-.5 0-2.9.1-5.2.3-2.4.2-4.3-.1-4.3-.6 0-.4-.5-.5-1.2-.1-1.6 1-14.8 1.1-14.8.1 0-.5-.5-.5-1.2-.1-1.7 1.1-19.8 1.1-19.8 0 0-.5-.6-.4-1.2.1-.7.5-3.1.8-5.3.6-5-.4-4.6-.4-13.3-.1-3.9.2-7.2-.1-7.2-.6s-.6-.4-1.2.1c-.7.5-5.6.7-10.8.6-5.2-.2-9.9-.3-10.5-.3-.5 0-2.9.1-5.2.3-2.4.2-4.3-.1-4.3-.6 0-.4-.5-.5-1.2-.1-1.6 1-14.8 1.1-14.8.1 0-.5-.5-.5-1.2-.1-1.7 1.1-19.8 1.1-19.8 0 0-.5-.6-.4-1.2.1-.7.5-3.1.8-5.3.6-5-.4-4.6-.4-13.3-.1-3.9.2-7.2-.1-7.2-.6s-.6-.4-1.2.1c-.7.5-5.6.7-10.8.6-5.2-.2-9.9-.3-10.5-.3-.5 0-2.9.1-5.2.3-2.4.2-4.3-.1-4.3-.6 0-.4-.5-.5-1.2-.1-1.6 1-14.8 1.1-14.8.1 0-.5-.5-.5-1.2-.1-1.7 1.1-19.8 1.1-19.8 0 0-.5-.6-.4-1.2.1-.7.5-3.1.8-5.3.6-5-.4-4.6-.4-13.3-.1-3.9.2-7.2-.1-7.2-.6s-.6-.4-1.2.1c-.7.5-5.6.7-10.8.6-5.2-.2-9.9-.3-10.5-.3-.5 0-2.9.1-5.2.3-2.4.2-4.3-.1-4.3-.6 0-.4-.5-.5-1.2-.1-1.6 1-14.8 1.1-14.8.1 0-.5-.5-.5-1.2-.1-1.7 1.1-19.8 1.1-19.8 0 0-.5-.6-.4-1.2.1-.7.5-3.1.8-5.3.6-5-.4-4.6-.4-13.3-.1-3.9.2-7.2-.1-7.2-.6s-.6-.4-1.2.1c-.7.5-5.6.7-10.8.6-5.2-.2-9.9-.3-10.5-.3-.5 0-2.9.1-5.2.3-2.4.2-4.3-.1-4.3-.6 0-.4-.5-.5-1.2-.1-1.6 1-14.8 1.1-14.8.1 0-.5-.5-.5-1.2-.1-1.7 1.1-19.8 1.1-19.8 0 0-.5-.6-.4-1.2.1-.7.5-3.1.8-5.3.6-5-.4-4.6-.4-13.3-.1-3.9.2-7.2-.1-7.2-.6s-.6-.4-1.2.1c-.7.5-5.6.7-10.8.6-5.2-.2-9.9-.3-10.5-.3-.5 0-2.9.1-5.2.3-2.4.2-4.3-.1-4.3-.6 0-.4-.5-.5-1.2-.1-1.6 1-14.8 1.1-14.8.1 0-.5-.5-.5-1.2-.1-1.7 1.1-19.8 1.1-19.8 0 0-.5-.6-.4-1.2.1-.7.5-3.1.8-5.3.6-5-.4-4.6-.4-13.3-.1-3.9.2-7.2-.1-7.2-.6s-.6-.4-1.2.1c-.7.5-5.6.7-10.8.6-5.2-.2-9.9-.3-10.5-.3-.5 0-2.9.1-5.2.3-2.4.2-4.3-.1-4.3-.6 0-.4-.5-.5-1.2-.1-1.6 1-14.8 1.1-14.8.1 0-.5-.5-.5-1.2-.1-1.6 1-19.8 1.1-19.8.1 0-.5-.6-.5-1.2 0-1.7 1-9.9 1.1-12 0-1.1-.4-1.8-.4-1.8.2z"/></svg>