<svg xmlns="http://www.w3.org/2000/svg" aria-hidden="true" style="position:absolute;width:0;height:0;overflow:hidden">
  <defs>
    <symbol id="icon-mail" viewBox="0 0 32 32">
      <path d="M22.971 27.771H9.028c-2.4 0-3.657 0-4.686-.571-1.029-.457-1.714-1.257-2.286-2.286-.571-1.143-.571-2.286-.571-4.686V8.915c.114-.8.229-1.371.457-1.943.457-1.029 1.257-1.714 2.286-2.286 1.143-.571 2.286-.571 4.686-.571h13.829c2.4 0 3.657 0 4.686.571 1.029.457 1.714 1.257 2.286 2.286.343.571.457 1.143.457 1.943.114.229.114.457 0 .571V20.228c0 2.4 0 3.657-.571 4.686-.457 1.029-1.257 1.714-2.286 2.286-.8.571-1.943.571-4.343.571zM4.457 24.457c.229.343.571.571.914.686.571.343 1.714.343 3.657.343h13.829c1.943 0 3.086 0 3.657-.343.343-.229.686-.457.914-.686l-7.771-7.086-.571.457c-.914.686-1.486 1.029-2.171 1.257a4.933 4.933 0 0 1-1.829 0c-.686-.114-1.257-.571-2.171-1.257l-.571-.457-7.886 7.086zM21.6 16.114l6.514 5.943V11.543L21.6 16.114zM3.771 11.543v10.514l6.514-5.943-6.514-4.571zm9.029 3.543 1.371.914c.686.457 1.143.8 1.371.914s.457.114.686 0c.229-.114.686-.343 1.371-.914l1.371-.914L27.884 8.8c0-.343-.114-.571-.229-.8a2.266 2.266 0 0 0-1.257-1.257c-.571-.343-1.714-.343-3.657-.343H9.027c-1.943 0-3.086 0-3.657.343S4.341 7.543 4.113 8c-.114.229-.114.457-.229.8l8.914 6.286z"/>
    </symbol>
    <symbol id="icon-lock" viewBox="0 0 32 32">
      <path d="M21.6 29.1H10.4c-2.4 0-3.6 0-4.7-.6-1-.5-1.8-1.3-2.2-2.2-.6-1.1-.6-2.3-.6-4.7v-.5c0-2.4 0-3.6.6-4.7.5-1 1.3-1.8 2.2-2.2.7-.4 1.4-.5 2.5-.5v-2.9C8.2 6.5 11.7 3 16 3s7.8 3.5 7.8 7.8v2.9c1.1 0 1.8.2 2.5.5 1 .5 1.8 1.3 2.2 2.2.6 1.1.6 2.3.6 4.7v.5c0 2.4 0 3.6-.6 4.7-.5 1-1.3 1.8-2.2 2.2-1.1.6-2.3.6-4.7.6zM10.4 15.8c-2 0-3.1 0-3.7.3-.5.3-1 .7-1.2 1.2-.3.6-.3 1.7-.3 3.7v.5c0 2 0 3.1.3 3.7.3.5.7 1 1.2 1.2.6.3 1.7.3 3.7.3h11.2c2 0 3.1 0 3.7-.3.5-.3 1-.7 1.2-1.2.3-.6.3-1.7.3-3.7V21c0-2 0-3.1-.3-3.7-.3-.5-.7-1-1.2-1.2-.6-.3-1.7-.3-3.7-.3H10.4zm.1-2.3h11v-2.9c0-3-2.5-5.5-5.5-5.5s-5.5 2.5-5.5 5.5v2.9z"/>
    </symbol>
    <symbol id="icon-close" viewBox="0 0 32 32">
      <path d="M24 25.714c-.457 0-.914-.114-1.257-.457L16 18.4l-6.743 6.743c-.686.686-1.714.686-2.4 0s-.686-1.714 0-2.4L13.6 16 6.743 9.257c-.686-.686-.686-1.714 0-2.4s1.714-.686 2.4 0l6.743 6.743 6.743-6.743c.686-.686 1.714-.686 2.4 0s.686 1.714 0 2.4L18.4 16l6.743 6.743c.686.686.686 1.714 0 2.4-.229.457-.686.571-1.143.571z"/>
    </symbol>
    <symbol id="icon-menu" viewBox="0 0 32 32">
      <path d="M22.7 14.5H4c-.6 0-1.1-.5-1.1-1.1s.5-1.1 1.1-1.1h18.7c.6 0 1.1.5 1.1 1.1s-.5 1.1-1.1 1.1zM28 9.1H4c-.6 0-1.1-.5-1.1-1.1S3.4 6.9 4 6.9h24c.6 0 1.1.5 1.1 1.1s-.5 1.1-1.1 1.1zM28 19.8H4c-.6 0-1.1-.5-1.1-1.1s.5-1.1 1.1-1.1h24c.6 0 1.1.5 1.1 1.1s-.5 1.1-1.1 1.1zM22.7 25.1H4c-.6 0-1.1-.5-1.1-1.1s.5-1.1 1.1-1.1h18.7c.6 0 1.1.5 1.1 1.1s-.5 1.1-1.1 1.1z"/>
    </symbol>
    <symbol id="icon-trash" viewBox="0 0 32 32">
      <path d="M18 29.5h-4c-2.3 0-3.5 0-4.6-.5-1-.5-1.8-1.2-2.4-2.2-.6-1.1-.7-2.3-.9-4.6L5.3 9.5H4c-.8 0-1.5-.7-1.5-1.5S3.2 6.5 4 6.5h24c.8 0 1.5.7 1.5 1.5s-.7 1.5-1.5 1.5h-1.3l-.8 12.7c-.2 2.3-.2 3.5-.9 4.6-.5 1-1.4 1.7-2.4 2.2-1.1.5-2.3.5-4.6.5zm-9.8-20L9 22c.1 1.8.2 2.8.5 3.3.3.4.6.8 1.1 1 .5.3 1.5.3 3.4.3h4c1.8 0 2.8 0 3.4-.3.5-.2.8-.6 1.1-1 .3-.5.4-1.5.5-3.3l.8-12.5H8.2zm10.5 12.6c-.8 0-1.5-.7-1.5-1.5V14c0-.8.7-1.5 1.5-1.5s1.5.7 1.5 1.5v6.7c-.1.8-.7 1.4-1.5 1.4zm-5.4 0c-.8 0-1.5-.7-1.5-1.5V14c0-.8.7-1.5 1.5-1.5s1.5.7 1.5 1.5v6.7c0 .8-.7 1.4-1.5 1.4zM20 5.5h-8c-.8 0-1.5-.7-1.5-1.5s.7-1.5 1.5-1.5h8c.8 0 1.5.7 1.5 1.5s-.7 1.5-1.5 1.5z"/>
    </symbol>
    <symbol id="icon-user" viewBox="0 0 32 32">
      <path d="M5.333 29.333a10.662 10.662 0 0 1 18.208-7.543c2 2 3.124 4.714 3.124 7.543H5.332zm10.667-12c-4.42 0-8-3.58-8-8s3.58-8 8-8 8 3.58 8 8-3.58 8-8 8z"/>
    </symbol>
    <symbol id="icon-arrow-down" viewBox="0 0 28 32">
      <path d="M5.898 12h16.513l-7.423 8.391c-.221.25-.521.39-.834.39s-.613-.14-.834-.39L5.898 12z"/>
    </symbol>
    <symbol id="icon-arrow-right" viewBox="0 0 32 32">
      <path d="M18.7 25.6c-.4 0-.8-.2-1.1-.5-.6-.6-.6-1.6 0-2.3l5.3-5.3H5.3c-.9 0-1.6-.7-1.6-1.6s.7-1.6 1.6-1.6h17.5L17.5 9c-.6-.6-.6-1.6 0-2.3.6-.6 1.6-.6 2.3 0l8 8c.3.3.5.7.5 1.1s-.2.8-.5 1.1l-8 8c-.3.5-.7.7-1.1.7z"/>
    </symbol>
    <symbol id="icon-arrow-back" viewBox="0 0 32 32">
      <path d="M4.5 19.6 15.7 8.367c.133-.133.278-.228.433-.283s.322-.084.5-.084.345.028.5.084.3.149.433.283L28.799 19.6c.311.311.467.7.467 1.167s-.167.867-.5 1.2c-.333.333-.722.5-1.167.5s-.833-.167-1.167-.5l-9.8-9.8-9.8 9.8c-.311.311-.694.467-1.149.467s-.851-.167-1.184-.5-.5-.722-.5-1.167c0-.444.167-.833.5-1.167z"/>
    </symbol>
    <symbol id="icon-book" viewBox="0 0 34 32">
      <path d="M32.716 8.869a15.813 15.813 0 0 0-2.24-.953v18.801a15.321 15.321 0 0 0-5.333-.969c-2.895 0-5.76.844-8.381 2.469V9.306c-2.469-1.454-5.318-2.313-8.381-2.313-2.728 0-5.303.688-7.573 1.875-.503.25-.808.797-.808 1.375v18.88c0 .906.716 1.547 1.524 1.547.244 0 .488-.063.731-.188 1.844-.985 3.916-1.61 6.126-1.61 3.154 0 6.065 1.282 8.381 3.126 2.316-1.844 5.227-3.126 8.381-3.126 2.21 0 4.282.625 6.126 1.625.244.125.488.188.731.188.792 0 1.524-.641 1.524-1.547V10.243c0-.578-.305-1.125-.808-1.375zM13.714 26.717c-1.737-.641-3.52-.969-5.333-.969s-3.596.328-5.333.969V11.229a13.263 13.263 0 0 1 5.333-1.11c1.829 0 3.642.391 5.333 1.125v15.473zM27.429 1.524 19.81 9.338v14.847l7.619-7.033V1.523z"/>
    </symbol>
    <symbol id="icon-shoppingcart" viewBox="0 0 32 32">
      <path d="M25.333 9.333h-4V8a5.332 5.332 0 1 0-10.666 0v1.333h-4a1.335 1.335 0 0 0-1.334 1.334v14.667a4.003 4.003 0 0 0 4 4h13.333a4.003 4.003 0 0 0 4-4V10.667a1.335 1.335 0 0 0-1.334-1.334zM13.333 8a2.668 2.668 0 0 1 5.334 0v1.333h-5.333V8zM24 25.333a1.335 1.335 0 0 1-1.334 1.334H9.333a1.335 1.335 0 0 1-1.334-1.334V12h2.667v1.333a1.335 1.335 0 0 0 2.277.943c.25-.251.391-.589.391-.943V12h5.333v1.333a1.333 1.333 0 1 0 2.667 0V12h2.667v13.333z"/>
    </symbol>
  </defs>
</svg>
